<?xml version="1.0" encoding="UTF-8" standalone="no"?>
<!-- Created with Inkscape (http://www.inkscape.org/) -->

<svg
   xmlns:dc="http://purl.org/dc/elements/1.1/"
   xmlns:cc="http://creativecommons.org/ns#"
   xmlns:rdf="http://www.w3.org/1999/02/22-rdf-syntax-ns#"
   xmlns:svg="http://www.w3.org/2000/svg"
   xmlns="http://www.w3.org/2000/svg"
   xmlns:sodipodi="http://sodipodi.sourceforge.net/DTD/sodipodi-0.dtd"
   xmlns:inkscape="http://www.inkscape.org/namespaces/inkscape"
   width="144"
   height="168"
   id="svg3008"
   version="1.1"
   inkscape:version="0.48.4 r9939"
   sodipodi:docname="mockup.svg"
   inkscape:export-filename="/tmp/mockup.png"
   inkscape:export-xdpi="90"
   inkscape:export-ydpi="90">
  <defs
     id="defs3010" />
  <sodipodi:namedview
     id="base"
     pagecolor="#ffffff"
     bordercolor="#666666"
     borderopacity="1.0"
     inkscape:pageopacity="0.0"
     inkscape:pageshadow="2"
     inkscape:zoom="3.257742"
     inkscape:cx="85.869448"
     inkscape:cy="122.13308"
     inkscape:document-units="px"
     inkscape:current-layer="layer1"
     showgrid="false"
     inkscape:window-width="1680"
     inkscape:window-height="995"
     inkscape:window-x="0"
     inkscape:window-y="27"
     inkscape:window-maximized="1"
     showguides="true"
     inkscape:guide-bbox="true" />
  <metadata
     id="metadata3013">
    <rdf:RDF>
      <cc:Work
         rdf:about="">
        <dc:format>image/svg+xml</dc:format>
        <dc:type
           rdf:resource="http://purl.org/dc/dcmitype/StillImage" />
        <dc:title></dc:title>
      </cc:Work>
    </rdf:RDF>
  </metadata>
  <g
     inkscape:label="Layer 1"
     inkscape:groupmode="layer"
     id="layer1"
     transform="translate(0,-884.3622)">
    <rect
       style="fill:#000000"
       id="rect3034"
       x="0"
       y="884.36218"
       width="144"
       height="168" />
    <rect
       style="fill:#ffffff"
       id="rect2991"
       width="144"
       height="40"
       x="0"
       y="1012.3622"
       rx="8"
       ry="5.3333335" />
    <path
       sodipodi:type="arc"
       style="fill:none;stroke:#ffffff;stroke-width:0.5386188;stroke-miterlimit:4;stroke-opacity:1;stroke-dasharray:none"
       id="path3798"
       sodipodi:cx="73.12941"
       sodipodi:cy="69.505882"
       sodipodi:rx="32.282352"
       sodipodi:ry="30.305882"
       d="m 101.08703,84.658365 c -1e-4,1.53e-4 -1.9e-4,3.06e-4 -2.8e-4,4.58e-4"
       transform="matrix(1.8734468,0,0,1.9956282,-65.004058,809.6543)"
       sodipodi:start="0.52358132"
       sodipodi:end="0.52359879"
       sodipodi:open="true" />
    <path
       sodipodi:type="arc"
       style="fill:none;stroke:#ffffff;stroke-width:0.5386188;stroke-miterlimit:4;stroke-opacity:1;stroke-dasharray:none"
       id="path3798-6"
       sodipodi:cx="73.12941"
       sodipodi:cy="69.505882"
       sodipodi:rx="32.282352"
       sodipodi:ry="30.305882"
       d="m 89.271074,95.751281 c -1.63e-4,8.8e-5 -3.26e-4,1.77e-4 -4.89e-4,2.65e-4"
       transform="matrix(1.8734468,0,0,1.9956282,-65.00406,809.6543)"
       sodipodi:start="1.0471801"
       sodipodi:end="1.0471976"
       sodipodi:open="true" />
    <rect
       style="fill:#000000;fill-opacity:1;stroke:none"
       id="rect4887"
       width="128"
       height="128"
       x="8"
       y="884.36218" />
    <path
       style="fill:none;stroke:#ffffff;stroke-width:2.00006747;stroke-linecap:square;stroke-linejoin:miter;stroke-miterlimit:4;stroke-opacity:1;stroke-dasharray:none"
       d="M 42.000093,1000.3237 101.99996,896.40091"
       id="path5476-2"
       inkscape:connector-curvature="0" />
    <path
       style="fill:none;stroke:#ffffff;stroke-width:2.00006747;stroke-linecap:square;stroke-linejoin:miter;stroke-miterlimit:4;stroke-opacity:1;stroke-dasharray:none"
       d="M 20.038583,978.36227 123.96147,918.36235"
       id="path5476-5"
       inkscape:connector-curvature="0" />
    <path
       style="fill:none;stroke:#ffffff;stroke-width:2.00006747;stroke-linecap:square;stroke-linejoin:miter;stroke-miterlimit:4;stroke-opacity:1;stroke-dasharray:none"
       d="M 20.038573,918.36239 123.96148,978.36227"
       id="path5476-1"
       inkscape:connector-curvature="0" />
    <path
       style="fill:none;stroke:#ffffff;stroke-width:2.00006747;stroke-linecap:square;stroke-linejoin:miter;stroke-miterlimit:4;stroke-opacity:1;stroke-dasharray:none"
       d="M 42.000053,896.40089 102,1000.3237"
       id="path5476-4"
       inkscape:connector-curvature="0" />
    <path
       sodipodi:type="arc"
       style="fill:#000000;fill-opacity:1;stroke:#000000;stroke-width:1.9999603;stroke-linecap:square;stroke-miterlimit:4;stroke-opacity:1;stroke-dasharray:none;stroke-dashoffset:10"
       id="path5517"
       sodipodi:cx="64.5"
       sodipodi:cy="65.125"
       sodipodi:rx="21"
       sodipodi:ry="20.875"
       d="M 85.5,65.125 C 85.5,76.653944 76.09798,86 64.5,86 c -11.59798,0 -21,-9.346056 -21,-20.875 0,-11.528944 9.40202,-20.875 21,-20.875 11.59798,0 21,9.346056 21,20.875 z"
       transform="matrix(2.6814562,0,0,2.6975129,-100.95394,772.68673)" />
    <g
       transform="translate(7.9999931,-39.999934)"
       id="g5431">
      <path
         transform="matrix(0.6,0,0,0.76363636,-24.785714,921.98036)"
         d="m 54.642857,86.928574 c 0,2.16969 -2.238577,3.928571 -5,3.928571 -2.761424,0 -5,-1.758881 -5,-3.928571 0,-2.16969 2.238576,-3.928572 5,-3.928572 2.761423,0 5,1.758882 5,3.928572 z"
         sodipodi:ry="3.9285715"
         sodipodi:rx="5"
         sodipodi:cy="86.928574"
         sodipodi:cx="49.642857"
         id="path5397"
         style="fill:#ffffff;fill-opacity:1;stroke:none"
         sodipodi:type="arc" />
    </g>
    <path
       sodipodi:type="arc"
       style="fill:#ffffff;fill-opacity:1;stroke:none"
       id="path5397-3"
       sodipodi:cx="49.642857"
       sodipodi:cy="86.928574"
       sodipodi:rx="5"
       sodipodi:ry="3.9285715"
       d="m 54.642857,86.928574 c 0,2.16969 -2.238577,3.928571 -5,3.928571 -2.761424,0 -5,-1.758881 -5,-3.928571 0,-2.16969 2.238576,-3.928572 5,-3.928572 2.761423,0 5,1.758882 5,3.928572 z"
       transform="matrix(0.6,0,0,0.76363636,42.214283,940.98043)" />
    <path
       sodipodi:type="arc"
       style="fill:#ffffff;fill-opacity:1;stroke:none"
       id="path5397-5"
       sodipodi:cx="49.642857"
       sodipodi:cy="86.928574"
       sodipodi:rx="5"
       sodipodi:ry="3.9285715"
       d="m 54.642857,86.928574 c 0,2.16969 -2.238577,3.928571 -5,3.928571 -2.761424,0 -5,-1.758881 -5,-3.928571 0,-2.16969 2.238576,-3.928572 5,-3.928572 2.761423,0 5,1.758882 5,3.928572 z"
       transform="matrix(0.6,0,0,0.76363636,101.21428,881.98043)" />
    <path
       sodipodi:type="arc"
       style="fill:#ffffff;fill-opacity:1;stroke:none"
       id="path5397-54"
       sodipodi:cx="49.642857"
       sodipodi:cy="86.928574"
       sodipodi:rx="5"
       sodipodi:ry="3.9285715"
       d="m 54.642857,86.928574 c 0,2.16969 -2.238577,3.928571 -5,3.928571 -2.761424,0 -5,-1.758881 -5,-3.928571 0,-2.16969 2.238576,-3.928572 5,-3.928572 2.761423,0 5,1.758882 5,3.928572 z"
       transform="matrix(0.6,0,0,0.76363636,42.214283,822.98043)" />
    <rect
       style="fill:#ffffff;fill-opacity:1;stroke:none"
       id="rect3007"
       width="13"
       height="11"
       x="112"
       y="943.36243"
       rx="2.2188528"
       ry="2.9357207"
       inkscape:export-xdpi="90"
       inkscape:export-ydpi="90" />
    <text
       xml:space="preserve"
       style="font-size:40px;font-style:normal;font-variant:normal;font-weight:normal;font-stretch:normal;text-align:start;line-height:125%;letter-spacing:0px;word-spacing:0px;writing-mode:lr-tb;text-anchor:start;fill:#000000;fill-opacity:1;stroke:none;font-family:Digital-7 Mono;-inkscape-font-specification:Digital-7 Mono"
       x="16.286821"
       y="1051.2537"
       id="text2998"
       sodipodi:linespacing="125%"><tspan
         sodipodi:role="line"
         id="tspan3000"
         x="16.286821"
         y="1051.2537">18:46</tspan></text>
    <text
       xml:space="preserve"
       style="font-size:20px;font-style:normal;font-variant:normal;font-weight:normal;font-stretch:normal;text-align:start;line-height:125%;letter-spacing:0px;word-spacing:0px;writing-mode:lr-tb;text-anchor:start;fill:#000000;fill-opacity:1;stroke:none;font-family:Digital-7 Mono;-inkscape-font-specification:Digital-7 Mono"
       x="109.1783"
       y="1051.0599"
       id="text3002"
       sodipodi:linespacing="125%"><tspan
         sodipodi:role="line"
         id="tspan3004"
         x="109.1783"
         y="1051.0599">53</tspan></text>
    <text
       xml:space="preserve"
       style="font-size:14px;font-style:normal;font-variant:normal;font-weight:normal;font-stretch:normal;text-align:start;line-height:125%;letter-spacing:0px;word-spacing:0px;writing-mode:lr-tb;text-anchor:start;fill:#000000;fill-opacity:1;stroke:none;font-family:Digital-7 Mono;-inkscape-font-specification:Digital-7 Mono"
       x="42.976746"
       y="1023.2769"
       id="text3006"
       sodipodi:linespacing="125%"><tspan
         sodipodi:role="line"
         id="tspan3008"
         x="42.976746"
         y="1023.2769">Sydney</tspan></text>
    <text
       xml:space="preserve"
       style="font-size:14px;font-style:normal;font-variant:normal;font-weight:normal;font-stretch:normal;text-align:start;line-height:125%;letter-spacing:0px;word-spacing:0px;writing-mode:lr-tb;text-anchor:start;fill:#000000;fill-opacity:1;stroke:none;font-family:Digital-7 Mono;-inkscape-font-specification:Digital-7 Mono"
       x="108.52712"
       y="1023.0599"
       id="text3010"
       sodipodi:linespacing="125%"><tspan
         sodipodi:role="line"
         id="tspan3012"
         x="108.52712"
         y="1023.0599">+10</tspan></text>
    <text
       xml:space="preserve"
       style="font-size:12px;font-style:normal;font-variant:normal;font-weight:600;font-stretch:normal;text-align:start;line-height:125%;letter-spacing:0px;word-spacing:0px;writing-mode:lr-tb;text-anchor:start;fill:#000000;fill-opacity:1;stroke:none;font-family:URW Gothic L;-inkscape-font-specification:URW Gothic L Semi-Bold"
       x="111.34883"
       y="953.1684"
       id="text3014"
       sodipodi:linespacing="125%"><tspan
         sodipodi:role="line"
         id="tspan3016"
         x="111.34883"
         y="953.1684">15</tspan></text>
    <rect
       style="fill:#ffffff;stroke:#000000;stroke-width:1.12522554;stroke-linecap:butt;stroke-opacity:1"
       id="rect3026"
       width="61.874775"
       height="4.8747745"
       x="505.13333"
       y="764.02954"
       rx="7.2724795"
       transform="matrix(0.84819121,0.52969017,-0.52969017,0.84819121,0,0)" />
    <rect
       style="fill:#ffffff;stroke:#000000;stroke-width:0.88761276;stroke-linecap:butt;stroke-opacity:1"
       id="rect3026-7"
       width="36.712391"
       height="5.1123872"
       x="-417.33533"
       y="853.59827"
       rx="7.2719998"
       transform="matrix(0.8643628,-0.50286873,0.50286873,0.8643628,0,0)" />
    <path
       sodipodi:type="arc"
       id="path3018"
       sodipodi:cx="69.023254"
       sodipodi:cy="64.031006"
       sodipodi:rx="4.7751937"
       sodipodi:ry="3.6899226"
       d="m 73.798448,64.031006 a 4.7751937,3.6899226 0 1 1 -9.550387,0 4.7751937,3.6899226 0 1 1 9.550387,0 z"
       transform="matrix(0.62824677,0,0,0.81302519,28.636364,896.30338)"
       style="fill:#ffffff" />
    <path
       sodipodi:type="arc"
       style="fill:#000000"
       id="path3020"
       sodipodi:cx="56.480839"
       sodipodi:cy="55.498764"
       sodipodi:rx="0.76740271"
       sodipodi:ry="0.76740271"
       d="m 57.248241,55.498764 a 0.76740271,0.76740271 0 1 1 -1.534805,0 0.76740271,0.76740271 0 1 1 1.534805,0 z"
       transform="matrix(1.3030968,0,0,1.3030968,-1.5999993,876.04194)" />
    <text
       xml:space="preserve"
       style="font-size:10px;font-style:normal;font-variant:normal;font-stretch:normal;text-align:start;line-height:125%;letter-spacing:0px;word-spacing:0px;writing-mode:lr-tb;text-anchor:start;fill:#ffffff;fill-opacity:1;stroke:none;font-family:URW Gothic L;-inkscape-font-specification:URW Gothic L Book"
       x="60.313335"
       y="902.79773"
       id="text3022"
       sodipodi:linespacing="125%"><tspan
         sodipodi:role="line"
         id="tspan3024"
         x="60.313335"
         y="902.79773">local</tspan></text>
  </g>
</svg>
