<?xml version="1.0" encoding="UTF-8" standalone="no"?>
<!-- Created with Inkscape (http://www.inkscape.org/) -->

<svg
   xmlns:dc="http://purl.org/dc/elements/1.1/"
   xmlns:cc="http://creativecommons.org/ns#"
   xmlns:rdf="http://www.w3.org/1999/02/22-rdf-syntax-ns#"
   xmlns:svg="http://www.w3.org/2000/svg"
   xmlns="http://www.w3.org/2000/svg"
   xmlns:sodipodi="http://sodipodi.sourceforge.net/DTD/sodipodi-0.dtd"
   xmlns:inkscape="http://www.inkscape.org/namespaces/inkscape"
   width="144"
   height="168"
   id="svg3008"
   version="1.1"
   inkscape:version="0.48.4 r9939"
   sodipodi:docname="digital-display.svg"
   inkscape:export-filename="/home/phardy/src/pebble/apps/Dual-TZ/resources/src/images/digital-display.png"
   inkscape:export-xdpi="90"
   inkscape:export-ydpi="90">
  <defs
     id="defs3010" />
  <sodipodi:namedview
     id="base"
     pagecolor="#ffffff"
     bordercolor="#666666"
     borderopacity="1.0"
     inkscape:pageopacity="0.0"
     inkscape:pageshadow="2"
     inkscape:zoom="1.9921875"
     inkscape:cx="64"
     inkscape:cy="104.5573"
     inkscape:document-units="px"
     inkscape:current-layer="layer1"
     showgrid="false"
     inkscape:window-width="1366"
     inkscape:window-height="709"
     inkscape:window-x="0"
     inkscape:window-y="27"
     inkscape:window-maximized="1"
     showguides="true"
     inkscape:guide-bbox="true" />
  <metadata
     id="metadata3013">
    <rdf:RDF>
      <cc:Work
         rdf:about="">
        <dc:format>image/svg+xml</dc:format>
        <dc:type
           rdf:resource="http://purl.org/dc/dcmitype/StillImage" />
        <dc:title></dc:title>
      </cc:Work>
    </rdf:RDF>
  </metadata>
  <g
     inkscape:label="Layer 1"
     inkscape:groupmode="layer"
     id="layer1"
     transform="translate(0,-884.3622)">
    <rect
       style="fill:#000000"
       id="rect3034"
       x="0"
       y="884.36218"
       width="144"
       height="168" />
    <rect
       style="fill:#ffffff"
       id="rect2991"
       width="144"
       height="40"
       x="0"
       y="1012.3622"
       rx="8"
       ry="5.3333335" />
    <path
       sodipodi:type="arc"
       style="fill:none;stroke:#ffffff;stroke-width:0.5386188;stroke-miterlimit:4;stroke-opacity:1;stroke-dasharray:none"
       id="path3798"
       sodipodi:cx="73.12941"
       sodipodi:cy="69.505882"
       sodipodi:rx="32.282352"
       sodipodi:ry="30.305882"
       d="m 101.08703,84.658365 c -1e-4,1.53e-4 -1.9e-4,3.06e-4 -2.8e-4,4.58e-4"
       transform="matrix(1.8734468,0,0,1.9956282,-65.004058,809.6543)"
       sodipodi:start="0.52358132"
       sodipodi:end="0.52359879"
       sodipodi:open="true" />
    <path
       sodipodi:type="arc"
       style="fill:none;stroke:#ffffff;stroke-width:0.5386188;stroke-miterlimit:4;stroke-opacity:1;stroke-dasharray:none"
       id="path3798-6"
       sodipodi:cx="73.12941"
       sodipodi:cy="69.505882"
       sodipodi:rx="32.282352"
       sodipodi:ry="30.305882"
       d="m 89.271074,95.751281 c -1.63e-4,8.8e-5 -3.26e-4,1.77e-4 -4.89e-4,2.65e-4"
       transform="matrix(1.8734468,0,0,1.9956282,-65.00406,809.6543)"
       sodipodi:start="1.0471801"
       sodipodi:end="1.0471976"
       sodipodi:open="true" />
    <g
       transform="translate(8,-39.999983)"
       id="g5549">
      <rect
         y="924.36218"
         x="0"
         height="128"
         width="128"
         id="rect4887"
         style="fill:#000000;fill-opacity:1;stroke:none" />
      <path
         inkscape:connector-curvature="0"
         id="path5476-2"
         d="M 34.000099,1040.3237 93.999969,936.40084"
         style="fill:none;stroke:#ffffff;stroke-width:2.00006747;stroke-linecap:square;stroke-linejoin:miter;stroke-miterlimit:4;stroke-opacity:1;stroke-dasharray:none" />
      <path
         inkscape:connector-curvature="0"
         id="path5476-5"
         d="M 12.038589,1018.3622 115.96148,958.36228"
         style="fill:none;stroke:#ffffff;stroke-width:2.00006747;stroke-linecap:square;stroke-linejoin:miter;stroke-miterlimit:4;stroke-opacity:1;stroke-dasharray:none" />
      <path
         inkscape:connector-curvature="0"
         id="path5476-1"
         d="M 12.038578,958.36232 115.96149,1018.3622"
         style="fill:none;stroke:#ffffff;stroke-width:2.00006747;stroke-linecap:square;stroke-linejoin:miter;stroke-miterlimit:4;stroke-opacity:1;stroke-dasharray:none" />
      <path
         inkscape:connector-curvature="0"
         id="path5476-4"
         d="M 34.000065,936.40082 94.000003,1040.3237"
         style="fill:none;stroke:#ffffff;stroke-width:2.00006747;stroke-linecap:square;stroke-linejoin:miter;stroke-miterlimit:4;stroke-opacity:1;stroke-dasharray:none" />
      <path
         transform="matrix(2.7269022,0,0,2.7432309,-111.88519,809.70926)"
         d="M 85.5,65.125 C 85.5,76.653944 76.09798,86 64.5,86 c -11.59798,0 -21,-9.346056 -21,-20.875 0,-11.528944 9.40202,-20.875 21,-20.875 11.59798,0 21,9.346056 21,20.875 z"
         sodipodi:ry="20.875"
         sodipodi:rx="21"
         sodipodi:cy="65.125"
         sodipodi:cx="64.5"
         id="path5517"
         style="fill:#000000;fill-opacity:1;stroke:#000000;stroke-width:1.9999603;stroke-linecap:square;stroke-miterlimit:4;stroke-opacity:1;stroke-dasharray:none;stroke-dashoffset:10"
         sodipodi:type="arc" />
      <g
         id="g5431">
        <path
           sodipodi:type="arc"
           style="fill:#ffffff;fill-opacity:1;stroke:none"
           id="path5397"
           sodipodi:cx="49.642857"
           sodipodi:cy="86.928574"
           sodipodi:rx="5"
           sodipodi:ry="3.9285715"
           d="m 54.642857,86.928574 c 0,2.16969 -2.238577,3.928571 -5,3.928571 -2.761424,0 -5,-1.758881 -5,-3.928571 0,-2.16969 2.238576,-3.928572 5,-3.928572 2.761423,0 5,1.758882 5,3.928572 z"
           transform="matrix(0.6,0,0,0.76363636,-24.785714,921.98036)" />
      </g>
      <path
         transform="matrix(0.6,0,0,0.76363636,34.214286,980.98036)"
         d="m 54.642857,86.928574 c 0,2.16969 -2.238577,3.928571 -5,3.928571 -2.761424,0 -5,-1.758881 -5,-3.928571 0,-2.16969 2.238576,-3.928572 5,-3.928572 2.761423,0 5,1.758882 5,3.928572 z"
         sodipodi:ry="3.9285715"
         sodipodi:rx="5"
         sodipodi:cy="86.928574"
         sodipodi:cx="49.642857"
         id="path5397-3"
         style="fill:#ffffff;fill-opacity:1;stroke:none"
         sodipodi:type="arc" />
      <path
         transform="matrix(0.6,0,0,0.76363636,93.214286,921.98036)"
         d="m 54.642857,86.928574 c 0,2.16969 -2.238577,3.928571 -5,3.928571 -2.761424,0 -5,-1.758881 -5,-3.928571 0,-2.16969 2.238576,-3.928572 5,-3.928572 2.761423,0 5,1.758882 5,3.928572 z"
         sodipodi:ry="3.9285715"
         sodipodi:rx="5"
         sodipodi:cy="86.928574"
         sodipodi:cx="49.642857"
         id="path5397-5"
         style="fill:#ffffff;fill-opacity:1;stroke:none"
         sodipodi:type="arc" />
      <path
         transform="matrix(0.6,0,0,0.76363636,34.214286,862.98036)"
         d="m 54.642857,86.928574 c 0,2.16969 -2.238577,3.928571 -5,3.928571 -2.761424,0 -5,-1.758881 -5,-3.928571 0,-2.16969 2.238576,-3.928572 5,-3.928572 2.761423,0 5,1.758882 5,3.928572 z"
         sodipodi:ry="3.9285715"
         sodipodi:rx="5"
         sodipodi:cy="86.928574"
         sodipodi:cx="49.642857"
         id="path5397-54"
         style="fill:#ffffff;fill-opacity:1;stroke:none"
         sodipodi:type="arc" />
    </g>
  </g>
</svg>
